<svg xmlns="http://www.w3.org/2000/svg" viewBox="0 0 32 32" fill="none">
  <rect width="32" height="32" rx="6" fill="#0a1628"/>
  <path d="M16 6C11.6 6 8 9.6 8 14c0 4.5 3.5 7.5 6 10l2 2 2-2c2.5-2.5 6-5.5 6-10 0-4.4-3.6-8-8-8z" fill="#2d7ee7" opacity="0.2"/>
  <path d="M16 9c-2.8 0-5 2.2-5 5 0 3.2 2.5 5.4 4.3 7.2L16 22l.7-.8C18.5 19.4 21 17.2 21 14c0-2.8-2.2-5-5-5z" fill="#2d7ee7"/>
  <circle cx="16" cy="14" r="2" fill="#0a1628"/>
  <path d="M10 26h12v1.5c0 .8-.7 1.5-1.5 1.5h-9c-.8 0-1.5-.7-1.5-1.5V26z" fill="#2d7ee7" opacity="0.4"/>
</svg>
